<svg width="120" height="120" viewBox="0 0 120 120" fill="none" xmlns="http://www.w3.org/2000/svg">
<rect width="120" height="120" rx="8" fill="white"/>
<path d="M73.4896 76.5997C55.0639 90.1119 36.6382 81.7179 29.7286 75.832C8.23193 54.9495 36.6382 35.9096 53.5284 29C67.8595 39.2365 91.9153 63.0875 73.4896 76.5997Z" stroke="black"/>
<path d="M42.0598 49.7904C41.4456 47.3336 43.8512 45.1839 45.1308 44.4162C48.4576 44.1603 54.8043 44.5697 53.5759 48.2549C52.3475 51.94 48.9695 52.8613 47.434 52.8613C45.8985 52.8613 42.674 52.2471 42.0598 49.7904Z" stroke="black"/>
<path d="M70.5231 55.9322C71.1372 53.4755 68.7317 51.3258 67.4521 50.5581C64.1252 50.3021 57.7786 50.7116 59.007 54.3967C60.2354 58.0819 63.6134 59.0032 65.1489 59.0032C66.6844 59.0032 69.9089 58.389 70.5231 55.9322Z" stroke="black"/>
<path d="M62.0408 70.7305C62.655 68.2738 49.5011 68.4273 48.2215 67.6596C44.8947 67.4037 36.2449 60.1358 37.4732 63.8209C38.7016 67.5061 44.3828 73.0337 45.9183 73.0337C47.4538 73.0337 61.4266 73.1873 62.0408 70.7305Z" stroke="black"/>
<g clip-path="url(#clip0_2_2)">
<path d="M95.7968 73.6963C95.5598 72.811 95.1508 71.9812 94.593 71.254C94.0352 70.5269 93.3396 69.9169 92.5459 69.4586C91.7523 69.0004 90.8762 68.7031 89.9676 68.5836C89.059 68.4641 88.1357 68.5247 87.2506 68.7621L85.4139 69.2543L84.9218 67.4176C84.4428 65.63 83.2733 64.1059 81.6706 63.1805C80.0679 62.2552 78.1632 62.0045 76.3756 62.4834C74.588 62.9624 73.0639 64.1319 72.1386 65.7347C71.2132 67.3374 70.9625 69.2421 71.4415 71.0297L71.9336 72.8663L75.5456 86.3467L89.026 82.7346L90.8627 82.2425C91.7479 82.0055 92.5778 81.5964 93.3049 81.0387C94.032 80.4809 94.6421 79.7853 95.1003 78.9916C95.5585 78.198 95.8559 77.3218 95.9754 76.4133C96.0949 75.5047 96.0342 74.5814 95.7968 73.6963Z" fill="#FF3333" stroke="#FF3333" stroke-linecap="round" stroke-linejoin="round"/>
</g>
<path d="M94.192 11.304C94.352 11.1333 94.5067 11.0107 94.656 10.936C94.816 10.8613 94.9333 10.8507 95.008 10.904C95.0827 10.9467 95.0933 11.0427 95.04 11.192L90.848 22.712L90.32 23.272C89.9253 23.6347 89.7067 23.7093 89.664 23.496L87.808 15.24L84.752 22.744L84.24 23.304C83.8453 23.6773 83.6267 23.736 83.584 23.48L81.344 11.96C81.3227 11.864 81.3653 11.7307 81.472 11.56C81.5787 11.3893 81.712 11.24 81.872 11.112C82.0427 10.984 82.192 10.9093 82.32 10.888C82.4587 10.856 82.5387 10.888 82.56 10.984L84.512 21.064L87.536 13.624C87.6427 13.368 87.792 13.176 87.984 13.048C88.176 12.92 88.3413 12.8613 88.48 12.872H88.704L90.528 20.984L93.888 11.768C93.9413 11.6187 94.0427 11.464 94.192 11.304ZM103.687 10.872C103.793 10.872 103.847 10.9253 103.847 11.032C103.847 11.1493 103.783 11.2933 103.655 11.464C103.537 11.6347 103.393 11.784 103.223 11.912C103.052 12.0293 102.908 12.088 102.791 12.088H97.3986L97.0146 16.568C98.828 16.568 100.647 16.568 102.471 16.568C102.631 16.568 102.673 16.6693 102.599 16.872C102.513 17.1387 102.348 17.3573 102.103 17.528C101.868 17.6987 101.692 17.784 101.575 17.784C100.017 17.784 98.46 17.784 96.9026 17.784L96.5186 22.392C98.5666 22.392 100.62 22.392 102.679 22.392C102.839 22.392 102.881 22.4933 102.807 22.696C102.721 22.9627 102.556 23.1813 102.311 23.352C102.076 23.5227 101.9 23.608 101.783 23.608H95.4946C95.42 23.6187 95.3613 23.6027 95.3186 23.56C95.2866 23.528 95.276 23.4693 95.2866 23.384L96.2626 11.896C96.2733 11.7787 96.3426 11.6293 96.4706 11.448C96.7053 11.1387 96.9506 10.952 97.2066 10.888C97.26 10.8773 97.2973 10.872 97.3186 10.872C97.34 10.872 97.3613 10.872 97.3826 10.872H103.687ZM111.273 16.968C111.508 17.1173 111.78 17.3787 112.089 17.752C112.409 18.1147 112.617 18.5627 112.713 19.096C112.82 19.6187 112.772 20.1253 112.569 20.616C112.367 21.096 112.079 21.5387 111.705 21.944C110.863 22.8507 109.716 23.4053 108.265 23.608C107.252 23.736 106.079 23.736 104.745 23.608C104.639 23.5973 104.591 23.5333 104.601 23.416L105.593 11.896C105.721 11.4373 105.945 11.1227 106.265 10.952C106.393 10.888 106.527 10.8613 106.665 10.872C107.679 10.968 108.607 11.1013 109.449 11.272C110.292 11.4427 110.937 11.6933 111.385 12.024C112.239 12.6533 112.676 13.4 112.697 14.264C112.708 15.2027 112.233 16.104 111.273 16.968ZM110.761 21.896C110.953 21.7787 111.087 21.6827 111.161 21.608C111.247 21.5227 111.343 21.3413 111.449 21.064C111.567 20.7867 111.583 20.4347 111.497 20.008C111.423 19.5707 111.193 19.1333 110.809 18.696C110.436 18.2587 110.143 18.0293 109.929 18.008C109.588 17.9867 109.161 17.976 108.649 17.976C108.148 17.976 107.337 17.9547 106.217 17.912L105.833 22.408C108.095 22.6107 109.737 22.44 110.761 21.896ZM106.329 16.568L109.097 16.696C109.492 16.7173 109.849 16.7387 110.169 16.76C110.479 16.7387 110.777 16.584 111.065 16.296C111.353 16.008 111.492 15.656 111.481 15.24C111.46 14.44 111.108 13.784 110.425 13.272C109.924 12.8987 109.204 12.6213 108.265 12.44C107.817 12.3547 107.3 12.2747 106.713 12.2L106.329 16.568Z" fill="black"/>
<path d="M15.376 100.136C15.536 99.9333 15.7013 99.7787 15.872 99.672C16.0533 99.5653 16.1867 99.528 16.272 99.56C16.368 99.5813 16.4 99.6613 16.368 99.8L15.328 104.296C15.2427 104.925 15.504 105.261 16.112 105.304C16.56 105.336 16.896 105.283 17.12 105.144C17.2267 105.037 17.344 104.808 17.472 104.456C17.6 104.093 17.6907 103.688 17.744 103.24C17.968 101.448 17.6907 100.125 16.912 99.272C16.144 98.4187 14.864 98.0293 13.072 98.104C11.984 98.1573 11.088 98.4027 10.384 98.84C9.328 99.4907 8.608 100.803 8.224 102.776C7.744 105.283 8.29333 106.952 9.872 107.784C11.888 108.861 13.8293 108.904 15.696 107.912C15.856 107.827 15.9787 107.805 16.064 107.848C16.1493 107.891 16.1653 107.981 16.112 108.12C16.0693 108.269 15.9733 108.424 15.824 108.584C15.6853 108.755 15.536 108.883 15.376 108.968C13.1893 110.131 11.0027 110.131 8.816 108.968C7.09867 108.061 6.496 106.275 7.008 103.608C7.52 100.931 8.70933 99.016 10.576 97.864C11.5467 97.2667 12.6667 96.9413 13.936 96.888C15.8453 96.8027 17.2213 97.224 18.064 98.152C18.9067 99.08 19.2053 100.509 18.96 102.44C18.864 103.208 18.6667 103.901 18.368 104.52C18.08 105.139 17.6373 105.64 17.04 106.024C16.4533 106.408 15.8347 106.579 15.184 106.536C14.544 106.483 14.1867 106.189 14.112 105.656C12.928 106.861 11.7173 107.197 10.48 106.664C9.424 106.205 9.17867 104.973 9.744 102.968C10.0427 101.933 10.6027 101.112 11.424 100.504C11.9253 100.131 12.4267 99.88 12.928 99.752C13.8453 99.5173 14.6613 99.6453 15.376 100.136ZM14.864 101.816C14.8533 101.816 14.848 101.811 14.848 101.8C14.08 100.979 13.216 100.691 12.256 100.936C11.9253 101.021 11.6907 101.112 11.552 101.208C11.2853 101.411 11.0773 101.784 10.928 102.328C10.448 104.045 10.656 105.101 11.552 105.496C12.448 105.88 13.184 105.741 13.76 105.08C13.9093 104.909 14.0267 104.755 14.112 104.616C14.208 104.477 14.2613 104.403 14.272 104.392L14.864 101.816ZM25.9689 96.744C25.9049 96.904 25.7929 97.064 25.6329 97.224C25.4729 97.3733 25.3129 97.48 25.1529 97.544C25.0035 97.5973 24.9022 97.592 24.8489 97.528C24.4435 97.048 24.0542 96.696 23.6809 96.472C23.3075 96.2373 23.0195 96.1413 22.8169 96.184C22.7209 96.504 22.6515 97.0373 22.6089 97.784L22.4969 98.984C23.1049 98.984 23.7129 98.984 24.3209 98.984C24.4809 98.984 24.5235 99.0853 24.4489 99.288C24.3635 99.5547 24.1982 99.7733 23.9529 99.944C23.7182 100.115 23.5422 100.2 23.4249 100.2C23.0729 100.2 22.7262 100.2 22.3849 100.2L21.7769 106.584C21.7662 106.701 21.6969 106.845 21.5689 107.016C21.4409 107.197 21.3075 107.331 21.1689 107.416C21.0302 107.512 20.9182 107.571 20.8329 107.592C20.6409 107.645 20.5502 107.587 20.5609 107.416L21.2489 100.2C20.7795 100.2 20.3102 100.2 19.8409 100.2C19.6809 100.2 19.6382 100.099 19.7129 99.896C19.7982 99.6293 19.9582 99.4107 20.1929 99.24C20.4382 99.0693 20.6195 98.984 20.7369 98.984H21.3609L21.3929 98.616C21.3929 98.584 21.3982 98.488 21.4089 98.328C21.4195 98.168 21.4249 98.072 21.4249 98.04C21.4249 98.008 21.4302 97.928 21.4409 97.8C21.4515 97.6613 21.4569 97.576 21.4569 97.544C21.4675 97.5013 21.4782 97.4267 21.4889 97.32C21.5102 97.2133 21.5262 97.1387 21.5369 97.096C21.5475 97.0533 21.5635 96.9893 21.5849 96.904C21.6062 96.8187 21.6329 96.7493 21.6649 96.696C21.9209 96.1307 22.2569 95.7093 22.6729 95.432C23.0889 95.144 23.4515 94.984 23.7609 94.952C24.3795 94.8987 25.1262 95.384 26.0009 96.408C26.0542 96.472 26.0435 96.584 25.9689 96.744ZM25.8631 107.304C25.8951 107.208 25.9591 107.091 26.0551 106.952C26.1511 106.813 26.2845 106.685 26.4551 106.568C26.6258 106.451 26.7698 106.392 26.8871 106.392H31.7031C31.8631 106.392 31.9058 106.493 31.8311 106.696C31.7458 106.963 31.5805 107.181 31.3351 107.352C31.1005 107.523 30.9245 107.608 30.8071 107.608H25.9911C25.8418 107.608 25.7991 107.507 25.8631 107.304ZM39.0359 94.616C39.0465 94.488 39.1159 94.344 39.2439 94.184C39.3719 94.0133 39.5052 93.88 39.6439 93.784C39.7825 93.688 39.8945 93.6293 39.9799 93.608C40.1719 93.5547 40.2625 93.6133 40.2519 93.784L39.1639 106.584C39.1532 106.701 39.0839 106.845 38.9559 107.016C38.8279 107.187 38.6945 107.32 38.5559 107.416C38.4172 107.512 38.3052 107.571 38.2199 107.592C38.0279 107.645 37.9372 107.587 37.9479 107.416L38.0599 106.152C37.5159 106.824 36.9559 107.267 36.3799 107.48C35.8039 107.693 35.2705 107.731 34.7799 107.592C33.2652 107.155 32.8065 105.395 33.4039 102.312C33.6065 101.288 33.9639 100.445 34.4759 99.784C35.3612 98.6533 36.4332 98.1733 37.6919 98.344C38.0865 98.3973 38.4172 98.5147 38.6839 98.696L39.0359 94.616ZM38.4599 101.448C38.3212 100.307 37.7452 99.6773 36.7319 99.56C36.4225 99.528 36.1505 99.5333 35.9159 99.576C35.5745 99.64 35.3505 99.7413 35.2439 99.88C34.9772 100.232 34.7692 100.797 34.6199 101.576C34.0652 104.413 34.4492 106.013 35.7719 106.376C36.4439 106.568 36.9612 106.445 37.3239 106.008C37.6012 105.677 37.8785 105.181 38.1559 104.52C38.1665 104.488 38.1825 104.456 38.2039 104.424L38.4599 101.448ZM41.7593 99.352C41.7699 99.2347 41.8393 99.0907 41.9673 98.92C42.0953 98.7493 42.2286 98.6213 42.3673 98.536C42.5059 98.44 42.6233 98.3813 42.7193 98.36C42.9113 98.3173 42.9966 98.376 42.9753 98.536L42.1273 106.6C42.1166 106.728 42.0473 106.872 41.9193 107.032C41.7913 107.203 41.6579 107.331 41.5193 107.416C41.3806 107.512 41.2633 107.571 41.1673 107.592C40.9753 107.635 40.8899 107.571 40.9113 107.4L41.7593 99.352ZM41.8393 96.6C41.8499 96.4827 41.9139 96.3387 42.0312 96.168C42.1593 95.9973 42.2926 95.864 42.4313 95.768C42.5699 95.672 42.6873 95.6133 42.7833 95.592C42.9753 95.5387 43.0659 95.5973 43.0553 95.768L42.9753 96.888C42.9646 97.0053 42.8953 97.1493 42.7673 97.32C42.6499 97.4907 42.5219 97.624 42.3832 97.72C42.2446 97.816 42.1273 97.8747 42.0312 97.896C41.8393 97.9493 41.7486 97.8907 41.7593 97.72L41.8393 96.6ZM44.8061 99.352C44.8168 99.2347 44.8861 99.0907 45.0141 98.92C45.1421 98.7493 45.2755 98.6213 45.4141 98.536C45.5528 98.44 45.6701 98.3813 45.7661 98.36C45.9581 98.3173 46.0435 98.376 46.0221 98.536L45.9101 99.592C46.2088 99.2507 46.5715 98.9573 46.9981 98.712C47.4248 98.4667 47.8621 98.344 48.3101 98.344C49.3555 98.3333 50.0061 98.856 50.2621 99.912C50.6355 99.4213 51.0621 99.0373 51.5421 98.76C52.0221 98.4827 52.4861 98.344 52.9341 98.344C54.4381 98.3227 55.0568 99.576 54.7901 102.104L54.4061 106.584C54.3955 106.701 54.3261 106.845 54.1981 107.016C54.0701 107.187 53.9368 107.32 53.7981 107.416C53.6595 107.512 53.5475 107.571 53.4621 107.592C53.2701 107.645 53.1795 107.587 53.1901 107.416L53.5741 102.936C53.8195 100.675 53.3181 99.5493 52.0701 99.56C51.7608 99.56 51.5315 99.6027 51.3821 99.688C51.0195 99.9013 50.6835 100.461 50.3741 101.368C50.3635 101.603 50.3475 101.848 50.3261 102.104L49.9421 106.584C49.9315 106.701 49.8621 106.845 49.7341 107.016C49.6061 107.187 49.4728 107.32 49.3341 107.416C49.1955 107.512 49.0835 107.571 48.9981 107.592C48.8061 107.645 48.7155 107.587 48.7261 107.416L49.1101 102.936C49.1315 102.691 49.1421 102.504 49.1421 102.376C49.1421 102.248 49.1475 102.163 49.1581 102.12C49.1901 100.392 48.6195 99.5387 47.4461 99.56C47.1368 99.56 46.9075 99.6027 46.7581 99.688C46.3848 99.9013 46.0381 100.488 45.7181 101.448C45.7181 101.459 45.7181 101.475 45.7181 101.496L45.1741 106.6C45.1635 106.728 45.0941 106.872 44.9661 107.032C44.8381 107.203 44.7048 107.331 44.5661 107.416C44.4275 107.512 44.3101 107.571 44.2141 107.592C44.0221 107.635 43.9368 107.571 43.9581 107.4L44.8061 99.352ZM63.3259 105.912C63.4645 105.891 63.5445 105.933 63.5659 106.04C63.5872 106.136 63.5392 106.269 63.4219 106.44C63.3152 106.611 63.1285 106.803 62.8619 107.016C62.5952 107.229 62.3125 107.395 62.0139 107.512C61.4272 107.747 61.0645 107.64 60.9259 107.192C60.8619 107.011 60.8352 106.675 60.8459 106.184C60.2912 106.856 59.7312 107.293 59.1659 107.496C58.6005 107.699 58.0725 107.731 57.5819 107.592C56.0565 107.165 55.5979 105.405 56.2059 102.312C56.4085 101.288 56.7659 100.445 57.2779 99.784C58.1525 98.6533 59.2245 98.1733 60.4939 98.344C61.0272 98.408 61.4432 98.6053 61.7419 98.936C61.9872 98.6053 62.2432 98.408 62.5099 98.344C62.5952 98.3227 62.6592 98.3333 62.7019 98.376C62.7552 98.408 62.7765 98.4667 62.7659 98.552C62.1472 103.064 61.9285 105.603 62.1099 106.168C62.1952 106.424 62.3339 106.504 62.5259 106.408C62.6112 106.365 62.7339 106.28 62.8939 106.152C63.0539 106.013 63.1979 105.933 63.3259 105.912ZM60.9259 104.584C61.0005 103.731 61.0539 103.187 61.0859 102.952C61.3632 100.861 60.8459 99.7307 59.5339 99.56C59.2139 99.5173 58.9365 99.5227 58.7019 99.576C58.3819 99.64 58.1632 99.7413 58.0459 99.88C57.7792 100.221 57.5605 100.829 57.3899 101.704C57.2192 102.579 57.1445 103.352 57.1659 104.024C57.2299 105.347 57.6992 106.131 58.5739 106.376C59.2459 106.568 59.7632 106.445 60.1259 106.008C60.3925 105.688 60.6592 105.213 60.9259 104.584ZM71.1119 100.792C71.0265 100.952 70.8985 101.107 70.7279 101.256C70.5679 101.395 70.4185 101.48 70.2799 101.512C70.1412 101.544 70.0559 101.517 70.0239 101.432C69.8425 100.941 69.5492 100.525 69.1439 100.184C68.7492 99.832 68.3332 99.624 67.8959 99.56C67.4585 99.496 67.1172 99.5333 66.8719 99.672C66.6585 100.12 66.7172 100.595 67.0479 101.096C67.3359 101.533 67.9119 101.923 68.7759 102.264C69.3625 102.499 69.7519 102.669 69.9439 102.776C70.7972 103.299 71.2132 103.971 71.1919 104.792C71.1705 105.443 70.8612 106.067 70.2639 106.664C69.1759 107.741 67.9439 107.944 66.5679 107.272C65.7892 106.888 65.1492 106.296 64.6479 105.496C64.6052 105.421 64.6212 105.304 64.6959 105.144C64.7812 104.984 64.9039 104.829 65.0639 104.68C65.2239 104.531 65.3785 104.429 65.5279 104.376C65.6772 104.323 65.7732 104.333 65.8159 104.408C66.3919 105.315 67.1279 105.928 68.0239 106.248C68.5999 106.451 69.1172 106.477 69.5759 106.328C69.7252 106.275 69.8159 106.227 69.8479 106.184C69.9865 105.949 70.0132 105.645 69.9279 105.272C69.7785 104.589 69.1865 104.04 68.1519 103.624C68.1092 103.603 67.9865 103.555 67.7839 103.48C67.2079 103.256 66.8239 103.069 66.6319 102.92C65.6612 102.216 65.3412 101.373 65.6719 100.392C65.7999 99.9973 66.0132 99.6453 66.3119 99.336C67.0692 98.5467 67.8905 98.216 68.7759 98.344C69.3305 98.4187 69.8265 98.648 70.2639 99.032C70.7012 99.4053 71.0159 99.864 71.2079 100.408C71.2399 100.493 71.2079 100.621 71.1119 100.792ZM72.0038 107.304C72.0358 107.208 72.0998 107.091 72.1958 106.952C72.2918 106.813 72.4251 106.685 72.5958 106.568C72.7664 106.451 72.9104 106.392 73.0278 106.392H77.8438C78.0038 106.392 78.0464 106.493 77.9718 106.696C77.8864 106.963 77.7211 107.181 77.4758 107.352C77.2411 107.523 77.0651 107.608 76.9478 107.608H72.1318C71.9824 107.608 71.9398 107.507 72.0038 107.304ZM79.8805 99.336C79.8912 99.208 79.9605 99.064 80.0885 98.904C80.2165 98.7333 80.3498 98.6 80.4885 98.504C80.6272 98.408 80.7392 98.3493 80.8245 98.328C81.0165 98.2747 81.1072 98.3333 81.0965 98.504L81.0325 99.24C81.6725 98.632 82.4298 98.3333 83.3045 98.344C85.9498 98.3653 86.9098 99.976 86.1845 103.176C85.9072 104.392 85.5498 105.304 85.1125 105.912C84.6752 106.52 84.2272 106.952 83.7685 107.208C83.3098 107.475 82.8778 107.608 82.4725 107.608C81.5658 107.608 80.8672 107.299 80.3765 106.68C80.3765 106.68 80.2432 108.216 79.9765 111.288C79.9658 111.405 79.8965 111.549 79.7685 111.72C79.6405 111.891 79.5072 112.024 79.3685 112.12C79.2298 112.216 79.1178 112.275 79.0325 112.296C78.8405 112.349 78.7498 112.291 78.7605 112.12L79.8805 99.336ZM80.7125 102.968C80.7125 102.979 80.7125 102.995 80.7125 103.016C80.8938 105.267 81.7792 106.392 83.3685 106.392C83.7098 106.392 83.9338 106.333 84.0405 106.216C84.4138 105.832 84.7445 104.989 85.0325 103.688C85.3312 102.376 85.2672 101.363 84.8405 100.648C84.4138 99.9333 83.6032 99.5707 82.4085 99.56C81.8432 99.56 81.4912 99.6507 81.3525 99.832C81.2245 100.013 81.1018 100.312 80.9845 100.728C80.8778 101.133 80.8192 101.485 80.8085 101.784C80.7978 102.072 80.7818 102.243 80.7605 102.296L80.7125 102.968ZM88.7344 94.552C88.745 94.424 88.8144 94.2747 88.9424 94.104C89.0704 93.9333 89.2037 93.8053 89.3424 93.72C89.481 93.624 89.593 93.5653 89.6784 93.544C89.8704 93.4907 89.961 93.5493 89.9504 93.72L88.7664 106.584C88.7557 106.701 88.6864 106.845 88.5584 107.016C88.4304 107.197 88.297 107.331 88.1584 107.416C88.0197 107.512 87.9077 107.571 87.8224 107.592C87.6304 107.645 87.5397 107.587 87.5504 107.416L88.7344 94.552Z" fill="black"/>
<defs>
<clipPath id="clip0_2_2">
<rect width="30.4421" height="30.4421" fill="white" transform="translate(75.8281 55.4153) rotate(30)"/>
</clipPath>
</defs>
</svg>
